<?xml version="1.0" encoding="utf-8"?>
<!-- Generator: Adobe Illustrator 19.1.0, SVG Export Plug-In . SVG Version: 6.00 Build 0)  -->
<svg version="1.1" id="Layer_1" xmlns="http://www.w3.org/2000/svg" xmlns:xlink="http://www.w3.org/1999/xlink" x="0px" y="0px"
	 viewBox="-234 236 30 30" style="enable-background:new -234 236 30 30;" xml:space="preserve">
<style type="text/css">
	.st0{fill:#D02932;}
	.st1{fill:#FEFFFF;}
</style>
<g>
	<path class="st0" d="M-204,262c0,2.2-1.8,4-4,4h-22c-2.2,0-4-1.8-4-4v-22c0-2.2,1.8-4,4-4h22c2.2,0,4,1.8,4,4V262z"/>
</g>
<g>
	<path class="st1" d="M-227.3,247.5h2.8c0.6,0,1.1,0.2,1.5,0.5s0.5,0.8,0.5,1.4c0,0.6-0.2,1.1-0.5,1.4s-0.8,0.5-1.5,0.5h-2v2.6h-0.8
		V247.5z M-226.4,250.5h1.7c0.5,0,0.8-0.1,1.1-0.3c0.3-0.2,0.3-0.5,0.3-0.9c0-0.4-0.1-0.7-0.3-0.9c-0.2-0.2-0.6-0.3-1.1-0.3h-1.7
		V250.5z"/>
	<path class="st1" d="M-221.2,247.5h2.2c1,0,1.8,0.3,2.3,0.8s0.8,1.3,0.8,2.3c0,0.5-0.1,1-0.2,1.4c-0.1,0.4-0.3,0.8-0.6,1.1
		c-0.3,0.3-0.6,0.5-1,0.7c-0.4,0.2-0.9,0.2-1.4,0.2h-2.2v-6.5H-221.2z M-220.4,253.2h1.4c0.1,0,0.2,0,0.4,0c0.1,0,0.3-0.1,0.5-0.1
		c0.2-0.1,0.3-0.1,0.5-0.2c0.2-0.1,0.3-0.3,0.4-0.4c0.1-0.1,0.2-0.4,0.3-0.7c0.1-0.3,0.1-0.6,0.1-1c0-0.4,0-0.7-0.1-1
		c-0.1-0.3-0.2-0.6-0.4-0.8s-0.4-0.4-0.7-0.5s-0.6-0.2-1-0.2h-1.4C-220.4,248.3-220.4,253.2-220.4,253.2z"/>
	<path class="st1" d="M-214.7,247.5h4.2v0.7h-3.4v2h3v0.8h-3v2.9h-0.9L-214.7,247.5L-214.7,247.5z"/>
</g>
</svg>
